HIERARCHY
ROOT Hips
{
 OFFSET 0.000000 0.000000 0.000000
 CHANNELS 6 Xposition Yposition Zposition Yrotation Xrotation Zrotation
 JOINT Chest
 {
  OFFSET 0.000000 10.354800 0.006500
  CHANNELS 3 Yrotation Xrotation Zrotation
  JOINT Chest2
  {
   OFFSET 0.000000 10.435800 -0.013200
   CHANNELS 3 Yrotation Xrotation Zrotation
   JOINT Chest3
   {
    OFFSET 0.000000 10.393700 0.000000
    CHANNELS 3 Yrotation Xrotation Zrotation
    JOINT Chest4
    {
     OFFSET 0.000000 10.383100 0.000000
     CHANNELS 3 Yrotation Xrotation Zrotation
     JOINT Neck
     {
      OFFSET 0.000000 15.694000 0.000000
      CHANNELS 3 Yrotation Xrotation Zrotation
      JOINT Head
      {
       OFFSET 0.000000 9.711000 -0.028000
       CHANNELS 3 Yrotation Xrotation Zrotation
       End Site
       {
        OFFSET 0.000000 18.578700 -0.014800
       }
      }
     }
     JOINT RightCollar
     {
      OFFSET -3.157200 10.367500 0.000000
      CHANNELS 3 Yrotation Xrotation Zrotation
      JOINT RightShoulder
      {
       OFFSET -14.482500 0.000000 0.000000
       CHANNELS 3 Yrotation Xrotation Zrotation
       JOINT RightElbow
       {
        OFFSET 0.000000 -31.707800 0.000000
        CHANNELS 3 Yrotation Xrotation Zrotation
        JOINT RightWrist
        {
         OFFSET 0.000000 -25.659300 0.000000
         CHANNELS 3 Yrotation Xrotation Zrotation
         End Site
         {
          OFFSET 0.000000 -18.994300 0.000000
         }
        }
       }
      }
     }
     JOINT LeftCollar
     {
      OFFSET 3.157200 10.367500 0.000000
      CHANNELS 3 Yrotation Xrotation Zrotation
      JOINT LeftShoulder
      {
       OFFSET 14.482500 0.000000 0.000000
       CHANNELS 3 Yrotation Xrotation Zrotation
       JOINT LeftElbow
       {
        OFFSET 0.000000 -31.707800 0.000000
        CHANNELS 3 Yrotation Xrotation Zrotation
        JOINT LeftWrist
        {
         OFFSET 0.000000 -25.659300 0.000000
         CHANNELS 3 Yrotation Xrotation Zrotation
         End Site
         {
          OFFSET 0.000000 -18.994300 0.000000
         }
        }
       }
      }
     }
    }
   }
  }
 }
 JOINT RightHip
 {
  OFFSET -8.365600 -0.032100 -0.003200
  CHANNELS 3 Yrotation Xrotation Zrotation
  JOINT RightKnee
  {
   OFFSET 0.000000 -43.980000 0.003100
   CHANNELS 3 Yrotation Xrotation Zrotation
   JOINT RightAnkle
   {
    OFFSET 0.000000 -42.882800 0.005200
    CHANNELS 3 Yrotation Xrotation Zrotation
    JOINT RightToe
    {
     OFFSET 0.000000 -4.915500 10.826300
     CHANNELS 3 Yrotation Xrotation Zrotation
     End Site
     {
      OFFSET 0.000000 -1.517500 6.175900
     }
    }
   }
  }
 }
 JOINT LeftHip
 {
  OFFSET 8.365600 -0.032100 -0.003200
  CHANNELS 3 Yrotation Xrotation Zrotation
  JOINT LeftKnee
  {
   OFFSET 0.000000 -43.980000 0.003100
   CHANNELS 3 Yrotation Xrotation Zrotation
   JOINT LeftAnkle
   {
    OFFSET 0.000000 -42.882800 0.005200
    CHANNELS 3 Yrotation Xrotation Zrotation
    JOINT LeftToe
    {
     OFFSET 0.000000 -4.915500 10.826300
     CHANNELS 3 Yrotation Xrotation Zrotation
     End Site
     {
      OFFSET 0.000000 -1.517500 6.175900
     }
    }
   }
  }
 }
}
MOTION
Frames: 5
Frame Time: 0.008333
0.000000 91.618600 0.000000 0.000000 -5.767877 0.000000 0.000000 11.653817 0.000000 0.000000 -5.885947 0.000000 0.000000 -0.000000 0.000000 0.000000 -0.000000 0.000000 0.000000 12.528835 0.000000 0.000000 0.711642 0.000000 0.000000 -0.000000 0.000000 0.000000 0.000000 -90.000000 0.000000 -2.309062 0.000000 0.000000 2.309062 0.000000 0.000000 -0.000000 0.000000 0.000000 -0.000000 90.000000 0.000000 -2.309062 0.000000 0.000000 2.309062 0.000000 0.000000 8.520406 0.000000 0.000000 1.905762 0.000000 -0.000000 -4.658285 0.000000 0.000000 -0.000000 0.000000 0.000000 8.520406 0.000000 0.000000 1.905762 0.000000 -0.000000 -4.658285 0.000000 0.000000 -0.000000 0.000000
-13.166707 147.136499 27.710037 178.879696 -16.839024 -2.298976 -0.503219 10.701072 2.919168 -0.053249 0.716940 0.204256 -0.085977 1.231358 0.349444 -0.480321 9.848472 2.764190 -2.004612 17.970962 -2.350736 -1.578605 -6.774061 -2.036766 3.678435 3.744851 -4.190948 17.777049 -18.880127 -9.096153 36.508578 -36.634635 -29.799229 -8.977248 2.370824 -24.596586 -4.576596 6.700379 0.189629 -10.633361 -22.812130 1.163568 -45.073746 -38.820690 39.533191 -9.652951 4.964291 11.928508 10.567198 -60.798614 -12.742533 -139.982276 76.203401 -134.276544 -1.157831 -22.299794 4.043516 0.001800 -0.072956 -0.000331 -15.992361 -63.272921 10.746162 113.194903 79.577492 110.418936 -3.625387 -14.855849 -2.037477 0.012722 0.058274 0.009994
-11.253041 140.535243 28.136516 178.881984 -16.841807 -2.324671 -0.498218 10.703643 2.944381 -0.050674 0.717749 0.204412 -0.085313 1.230947 0.349658 -0.478036 9.846709 2.765323 -2.005648 17.972729 -2.354988 -1.583928 -6.773533 -2.032606 3.681223 3.750891 -4.193055 17.767767 -18.878325 -9.097890 36.516388 -36.637680 -29.815146 -8.987195 2.387790 -24.572597 -4.582264 6.703822 0.186636 -10.632695 -22.815428 1.161180 -45.077498 -38.812306 39.535723 -9.651449 4.963830 11.929031 10.522269 -60.806521 -12.691808 -139.995584 76.195436 -134.293493 -1.159343 -22.321521 4.046062 0.001499 -0.052485 0.000681 -16.046646 -63.252472 10.804507 113.161406 79.583960 110.380034 -3.614732 -14.839719 -2.038000 0.014524 0.045323 0.006598
-9.674277 135.098746 28.488852 178.880706 -16.838132 -2.360387 -0.492870 10.703234 2.983312 -0.050448 0.716049 0.203782 -0.085024 1.230787 0.349883 -0.473003 9.844968 2.763293 -2.003842 17.974400 -2.360481 -1.584061 -6.772872 -2.036508 3.686730 3.758862 -4.192541 17.755344 -18.886254 -9.101887 36.523590 -36.634743 -29.823016 -8.993259 2.394815 -24.556578 -4.585234 6.706151 0.181609 -10.634581 -22.815736 1.164924 -45.071313 -38.807954 39.537243 -9.652876 4.958846 11.928631 10.463169 -60.822020 -12.622392 -140.015344 76.190456 -134.314159 -1.160739 -22.355074 4.044669 -0.000412 -0.020433 -0.000187 -16.117570 -63.237606 10.886215 113.109534 79.586305 110.329499 -3.614392 -14.810359 -2.039992 0.003896 0.017311 0.001769
-8.536954 131.172441 28.742727 178.877494 -16.838366 -2.369185 -0.489590 10.704067 2.994043 -0.052320 0.716002 0.203173 -0.084923 1.230688 0.350084 -0.469783 9.844850 2.768976 -2.005195 17.973892 -2.370541 -1.578083 -6.771793 -2.052030 3.688144 3.760976 -4.200860 17.730527 -18.889486 -9.098061 36.552689 -36.634490 -29.832927 -9.001558 2.402651 -24.540185 -4.585309 6.706279 0.171578 -10.635594 -22.815133 1.167544 -45.068825 -38.806862 39.539006 -9.663151 4.957801 11.919668 10.445911 -60.828491 -12.599882 -140.020053 76.187485 -134.321644 -1.161950 -22.360524 4.040820 0.000386 -0.014365 0.000175 -16.132897 -63.229189 10.908750 113.106408 79.588026 110.326458 -3.620703 -14.807770 -2.040185 0.001108 0.010246 0.000503
